<?xml version="1.0" encoding="iso-8859-1"?>
<!-- Generator: Adobe Illustrator 19.0.0, SVG Export Plug-In . SVG Version: 6.00 Build 0)  -->
<svg version="1.1" id="Capa_1" xmlns="http://www.w3.org/2000/svg" xmlns:xlink="http://www.w3.org/1999/xlink" x="0px" y="0px"
	 viewBox="0 0 480 480" style="enable-background:new 0 0 480 480;" xml:space="preserve">
<g>
	<g>
		<g>
			<path d="M400,0H64c-4.418,0-8,3.582-8,8v464c0,4.418,3.582,8,8,8h352c4.418,0,8-3.582,8-8V24C424,10.745,413.255,0,400,0z
				 M408,464H72V16h328c4.418,0,8,3.582,8,8V464z"/>
			<path d="M240,232c26.51,0,48-21.49,48-48c0-26.51-21.49-48-48-48c-26.51,0-48,21.49-48,48
				C192.026,210.499,213.501,231.974,240,232z M240,152c17.673,0,32,14.327,32,32s-14.327,32-32,32c-17.673,0-32-14.327-32-32
				S222.327,152,240,152z"/>
			<path d="M392,376H264c-4.418,0-8,3.582-8,8v48c0,4.418,3.582,8,8,8h128c4.418,0,8-3.582,8-8v-48C400,379.582,396.418,376,392,376
				z M384,424H272v-32h112V424z"/>
			<path d="M240.16,192c4.418,0,8-3.582,8-8s-3.582-8-8-8h-0.08c-4.418,0.022-7.982,3.622-7.96,8.04S235.742,192.022,240.16,192z"/>
			<path d="M240,352h-25.376c6.64-9.392,14.4-20.92,21-32.16c1.456,0.048,2.912,0.16,4.376,0.16
				c75.221,0.112,136.29-60.777,136.402-135.998S315.625,47.712,240.404,47.6s-136.29,60.777-136.402,135.998
				c-0.073,48.967,26.146,94.203,68.67,118.482c-6.784,4.728-13.8,9.832-20.672,15.008V304c0-4.418-3.582-8-8-8H96
				c-4.418,0-8,3.582-8,8v128c0,4.418,3.582,8,8,8h144c4.418,0,8-3.582,8-8v-72C248,355.582,244.418,352,240,352z M120,184
				c0.001-66.274,53.728-119.999,120.002-119.998C306.277,64.004,360.001,117.731,360,184.005
				c-0.001,64.629-51.187,117.648-115.776,119.923c0.32-0.688,0.56-1.296,0.856-1.952c0.296-0.656,0.656-1.472,0.952-2.176
				c0.6-1.44,1.112-2.8,1.6-4.12c0.184-0.528,0.4-1.08,0.568-1.6c0.54-1.642,0.983-3.314,1.328-5.008
				c0.056-0.256,0.056-0.48,0.104-0.736c0.219-1.205,0.356-2.424,0.408-3.648c0-0.456,0-0.88,0-1.312
				c-0.021-0.855-0.101-1.708-0.24-2.552c-0.08-0.424-0.16-0.8-0.272-1.24c-0.197-0.759-0.465-1.499-0.8-2.208
				c-0.144-0.312-0.272-0.648-0.44-0.952c-0.553-0.968-1.228-1.86-2.008-2.656c-0.55-0.541-1.141-1.038-1.768-1.488
				c-0.176-0.128-0.376-0.24-0.56-0.368c-0.494-0.301-1.007-0.568-1.536-0.8c-0.216-0.104-0.432-0.208-0.664-0.296
				c-0.751-0.302-1.527-0.535-2.32-0.696h-0.12c-0.948-0.167-1.909-0.253-2.872-0.256c-0.096,0-0.176,0-0.272,0
				s-0.4,0.04-0.584,0.048c-0.803,0.021-1.604,0.085-2.4,0.192l-1.032,0.144c-0.984,0.16-2.032,0.384-3.136,0.664
				c-0.232,0.064-0.448,0.104-0.696,0.168c-1.397,0.384-2.896,0.867-4.496,1.448l-0.632,0.24c-1.392,0.528-2.872,1.136-4.424,1.816
				c-0.464,0.2-0.944,0.424-1.416,0.64c-1.429,0.656-2.931,1.379-4.504,2.168l-1.496,0.752c-2.064,1.064-4.208,2.216-6.512,3.52
				h-0.048c-2.344,1.328-4.848,2.808-7.472,4.4l-2.088,1.288c-1.936,1.192-3.936,2.448-6.024,3.792l-1.456,0.912
				C146.324,272,120.007,230.027,120,184z M148.952,339.648c14.072-11.2,30.024-22.768,43.744-31.824
				C218.12,291.08,229.4,287.08,233.8,286.176c-2.156,7.629-5.409,14.905-9.656,21.6c-9.622,16.397-20.172,32.231-31.6,47.424
				c-7.927,10.991-16.427,21.558-25.464,31.656c-9.368,9.377-24.564,9.385-33.941,0.017c-6.391-6.385-8.656-15.818-5.859-24.409
				v0.024c1.179-3.591,3.172-6.86,5.824-9.552c0.912-0.912,2.488-2.312,4.36-3.912C140.424,346.488,144.312,343.296,148.952,339.648
				z M232,424H104V312h32v17.496l-0.44,0.352l-1.6,1.272c-0.992,0.8-1.96,1.6-2.984,2.4c-0.528,0.432-1.024,0.8-1.544,1.28
				c-1.056,0.88-2.04,1.72-3.024,2.568l-1.28,1.112c-1.32,1.16-2.52,2.256-3.432,3.2c-4.407,4.463-7.713,9.892-9.656,15.856
				c-6.928,20.716,4.249,43.126,24.965,50.055c1.031,0.345,2.075,0.647,3.131,0.905c0.752,0.192,1.472,0.512,2.232,0.656
				c1.16,0.224,2.344,0.216,3.52,0.336c1.366,0.202,2.741,0.333,4.12,0.392c0.976,0,1.952-0.208,2.928-0.28
				c9.6-0.531,18.667-4.584,25.464-11.384c0.592-0.584,1.28-1.32,2.04-2.152l0.864-0.968c0.536-0.6,1.064-1.192,1.656-1.88
				l1.16-1.36l1.76-2.088l1.384-1.68l1.856-2.264l1.6-2l1.92-2.4l1.76-2.24c0.64-0.8,1.272-1.6,1.92-2.456l1.928-2.488l1.952-2.552
				l1.992-2.616c0.264-0.36,0.528-0.704,0.8-1.064H232V424z"/>
			<path d="M128,48c0-13.255-10.745-24-24-24S80,34.745,80,48s10.745,24,24,24S128,61.255,128,48z M96,48c0-4.418,3.582-8,8-8
				s8,3.582,8,8s-3.582,8-8,8S96,52.418,96,48z"/>
			<path d="M376,24c-13.255,0-24,10.745-24,24s10.745,24,24,24s24-10.745,24-24S389.255,24,376,24z M376,56c-4.418,0-8-3.582-8-8
				s3.582-8,8-8s8,3.582,8,8S380.418,56,376,56z"/>
			<path d="M152,376h0.08h0.08c2.318-0.02,4.509-1.059,5.992-2.84l15.504-15.504c3.07-3.178,2.982-8.242-0.196-11.312
				c-3.1-2.994-8.015-2.994-11.116,0l-16,16c-3.124,3.125-3.123,8.19,0.002,11.314C147.846,375.157,149.879,376,152,376z"/>
		</g>
	</g>
</g>
<g>
</g>
<g>
</g>
<g>
</g>
<g>
</g>
<g>
</g>
<g>
</g>
<g>
</g>
<g>
</g>
<g>
</g>
<g>
</g>
<g>
</g>
<g>
</g>
<g>
</g>
<g>
</g>
<g>
</g>
</svg>
