<svg id="Layer_1" enable-background="new 0 0 509.768 509.768" height="512" viewBox="0 0 509.768 509.768" width="512" xmlns="http://www.w3.org/2000/svg"><g><path d="m180 314.768c-33.084 0-60 26.916-60 60 3.296 79.598 116.716 79.575 120 0 0-33.084-26.916-60-60-60zm0 90c-16.542 0-30-13.458-30-30 1.648-39.799 58.358-39.788 60 0 0 16.542-13.458 30-30 30z"/><path d="m240 253.808v-194.04c-3.305-79.618-116.724-79.556-120 0v194.04c-125.832 63.654-83.296 253.91 60.021 255.96 142.888-1.63 186.161-191.96 59.979-255.96zm-61.511 225.949c-113.805-3.603-143.367-158.311-37.86-202.354l9.371-3.793v-213.842c1.653-39.809 58.362-39.778 60 0v213.842l9.371 3.793c106.871 44.884 74.943 202.462-40.882 202.354z"/><path d="m45 209.768h45v30h-45z"/><path d="m15 149.768h75v30h-75z"/><path d="m45 89.768h45v30h-45z"/><path d="m15 29.768h75v30h-75z"/><path d="m450 194.768v-150c-2.479-59.713-87.544-59.667-90 0v150c-59.713 2.479-59.667 87.544 0 90v180c2.479 59.713 87.544 59.667 90 0v-180c59.713-2.479 59.667-87.544 0-90zm-60-150c.826-19.904 29.181-19.889 30 0v150h-30zm30 420c-.826 19.904-29.181 19.889-30 0v-180h30zm30-210h-90c-19.904-.826-19.889-29.181 0-30h90c19.904.826 19.889 29.181 0 30z"/></g></svg>