<svg id="Component_8_2" data-name="Component 8 – 2" xmlns="http://www.w3.org/2000/svg" width="421" height="214.221" viewBox="0 0 421 214.221">
  <g id="Monitor" transform="translate(-1121 -392)">
    <g id="Screen">
      <g id="Rectangle_51" data-name="Rectangle 51" transform="translate(1121 394)" fill="#fff" stroke="#707070" stroke-width="3">
        <rect width="210" height="171" rx="11" stroke="none"/>
        <rect x="1.5" y="1.5" width="207" height="168" rx="9.5" fill="none"/>
      </g>
      <line id="Line_74" data-name="Line 74" x2="208" transform="translate(1121.5 537.5)" fill="none" stroke="#707070" stroke-width="3"/>
    </g>
    <g id="Stand">
      <path id="Path_79" data-name="Path 79" d="M1262.619,1799.112l-10.1,37.043h62.089l-8.629-37.043Z" transform="translate(-58 -1236)" fill="#fff" stroke="#707070" stroke-width="3"/>
      <line id="Line_75" data-name="Line 75" x2="81" transform="translate(1185.5 600.5)" fill="none" stroke="#707070" stroke-width="4"/>
    </g>
    <g id="Content" transform="translate(0.351 38)">
      <g id="Window" transform="translate(0 4.299)">
        <g id="Rectangle_52" data-name="Rectangle 52" transform="translate(1139 408)" fill="#fff" stroke="#707070" stroke-width="3">
          <rect width="84" height="70" rx="9" stroke="none"/>
          <rect x="1.5" y="1.5" width="81" height="67" rx="7.5" fill="none"/>
        </g>
        <line id="Line_76" data-name="Line 76" x2="83" transform="translate(1139.5 424.5)" fill="none" stroke="#707070" stroke-width="3"/>
        <text id="_" data-name="&lt;/&gt;" transform="translate(1156.5 454.5)" fill="#fff" stroke="#707070" stroke-width="3" font-size="28" font-family="SegoeUI, Segoe UI"><tspan x="0" y="0">&lt;/&gt;</tspan></text>
      </g>
      <g id="Chart">
        <path id="Path_81" data-name="Path 81" d="M1278.6,457.669V491.6s17.853-1.094,26.267-9.576,7.388-24.352,7.388-24.352Z" transform="translate(0 -6)" fill="#fff" stroke="#707070" stroke-width="3"/>
        <g id="Path_82" data-name="Path 82" transform="translate(1234.649 409)" fill="#fff">
          <path d="M 33.47322082519531 68.46616363525391 C 29.48946380615234 68.28904724121094 25.62359428405762 67.41726684570313 21.96075057983398 65.86801910400391 C 17.97176933288574 64.18081665039063 14.38899040222168 61.76514053344727 11.31192970275879 58.68806838989258 C 8.234860420227051 55.61101150512695 5.819180011749268 52.02822875976563 4.131979942321777 48.03924942016602 C 2.3855299949646 43.91017150878906 1.5 39.52312850952148 1.5 35 C 1.5 30.47686958312988 2.3855299949646 26.08983039855957 4.131979942321777 21.96075057983398 C 5.819180011749268 17.97176933288574 8.234860420227051 14.38899040222168 11.31192970275879 11.31192970275879 C 14.38899040222168 8.234860420227051 17.97176933288574 5.819180011749268 21.96075057983398 4.131979942321777 C 26.08983039855957 2.3855299949646 30.47686958312988 1.5 35 1.5 C 39.52312850952148 1.5 43.91017150878906 2.3855299949646 48.03924942016602 4.131979942321777 C 52.02822875976563 5.819180011749268 55.61101150512695 8.234860420227051 58.68806838989258 11.31192970275879 C 61.76514053344727 14.38899040222168 64.18081665039063 17.97176933288574 65.86801910400391 21.96075057983398 C 67.42142486572266 25.6334228515625 68.29372406005859 29.51030921936035 68.46758270263672 33.50539398193359 C 60.38524627685547 33.53363800048828 56.03005981445313 33.54478073120117 53.16329956054688 33.54478073120117 C 51.10076904296875 33.54478073120117 49.80619812011719 33.53899002075195 48.16722106933594 33.53165054321289 C 45.80134963989258 33.52106094360352 42.5611686706543 33.50656127929688 35.00130081176758 33.5 L 33.50186920166016 33.49869918823242 L 33.5 34.99813079833984 C 33.49766159057617 36.87252044677734 33.47016143798828 38.8209114074707 33.43833160400391 41.07695007324219 C 33.3563346862793 46.88697052001953 33.24511337280273 54.76589584350586 33.47322082519531 68.46616363525391 Z" stroke="none"/>
          <path d="M 35 3 C 30.67870712280273 3 26.4882698059082 3.845657348632813 22.54508209228516 5.513481140136719 C 18.73489379882813 7.125057220458984 15.3123779296875 9.432788848876953 12.37258911132813 12.37258911132813 C 9.432788848876953 15.3123779296875 7.125057220458984 18.73489379882813 5.513481140136719 22.54508209228516 C 3.845657348632813 26.4882698059082 3 30.67870712280273 3 35 C 3 39.32129669189453 3.845657348632813 43.5117301940918 5.513481140136719 47.45491790771484 C 7.125057220458984 51.26510620117188 9.432788848876953 54.6876220703125 12.37258911132813 57.62741088867188 C 15.3123779296875 60.56721115112305 18.73489379882813 62.87494277954102 22.54508209228516 64.48651885986328 C 25.55253219604492 65.75856018066406 28.70392990112305 66.55235290527344 31.94739532470703 66.85746002197266 C 31.75390243530273 54.13511276245117 31.85965728759766 46.6404914855957 31.93846893310547 41.05577850341797 C 31.97023391723633 38.80490493774414 31.9976692199707 36.86100006103516 32 34.99625778198242 L 32.00374221801758 31.99739837646484 L 35.00260162353516 32 C 42.56538772583008 32.00656509399414 45.80716705322266 32.02107238769531 48.17420959472656 32.03165817260742 C 49.81128311157227 32.03899002075195 51.10433959960938 32.04477691650391 53.16343688964844 32.04477691650391 C 55.83186340332031 32.04477691650391 59.79495239257813 32.03509521484375 66.86337280273438 32.01092910766602 C 66.56272125244141 28.74496841430664 65.76690673828125 25.57226943969727 64.48651885986328 22.54508209228516 C 62.87494277954102 18.73489379882813 60.56721115112305 15.3123779296875 57.62741088867188 12.37258911132813 C 54.6876220703125 9.432788848876953 51.26510620117188 7.125057220458984 47.45491790771484 5.513481140136719 C 43.5117301940918 3.845657348632813 39.32129669189453 3 35 3 M 35 0 C 54.32996368408203 0 70 15.67003631591797 70 35 C 60.57159423828125 35.03348922729492 56.0756950378418 35.04477691650391 53.16343307495117 35.04477691650391 C 48.13518524169922 35.04477691650391 47.82735824584961 35.01113128662109 35 35 C 34.99132919311523 41.94470596313477 34.63903427124023 49.90344619750977 35 70 C 15.67003631591797 70 0 54.32996368408203 0 35 C 0 15.67003631591797 15.67003631591797 0 35 0 Z" stroke="none" fill="#707070"/>
        </g>
      </g>
      <g id="Search" transform="translate(-0.351 -38)">
        <g id="Rectangle_53" data-name="Rectangle 53" transform="translate(1139 407)" fill="#fff" stroke="#707070" stroke-width="3">
          <rect width="175" height="28" stroke="none"/>
          <rect x="1.5" y="1.5" width="172" height="25" fill="none"/>
        </g>
        <g id="Icon" transform="translate(0 1.75)">
          <g id="Ellipse_50" data-name="Ellipse 50" transform="translate(1147 410)" fill="#fff" stroke="#707070" stroke-width="2">
            <circle cx="6.5" cy="6.5" r="6.5" stroke="none"/>
            <circle cx="6.5" cy="6.5" r="5.5" fill="none"/>
          </g>
          <line id="Line_77" data-name="Line 77" x2="6" y2="8" transform="translate(1157.5 420.5)" fill="none" stroke="#707070" stroke-width="2"/>
        </g>
      </g>
    </g>
  </g>
  <g id="Case" transform="translate(-1121 -392)">
    <g id="Path_83" data-name="Path 83" transform="translate(1350 392)" fill="#fff">
      <path d="M 18.27819442749023 212.7211303710938 C 15.88716697692871 212.7211303710938 14.20394420623779 212.5138549804688 14.18722248077393 212.5117340087891 L 14.09441661834717 212.5001220703125 L 14 212.5000152587891 C 10.6611385345459 212.5000152587891 7.522110939025879 211.1997985839844 5.161166667938232 208.8388519287109 C 2.800222158432007 206.4779052734375 1.5 203.3388824462891 1.5 200.0000152587891 L 1.5 14.00001621246338 C 1.5 10.66115570068359 2.800222158432007 7.522127628326416 5.161166667938232 5.16118335723877 C 7.522110939025879 2.800238847732544 10.6611385345459 1.500016689300537 14 1.500016689300537 L 178 1.500016689300537 C 181.3388824462891 1.500016689300537 184.4779205322266 2.800238847732544 186.8388366699219 5.16118335723877 C 189.1997833251953 7.52209997177124 190.5 10.66112804412842 190.5 14.00001621246338 L 190.5 200.0000152587891 C 190.5 203.3394622802734 189.3162841796875 206.3630676269531 187.1668548583984 208.5138702392578 C 185.017333984375 210.664794921875 181.9950256347656 211.8493804931641 178.6567535400391 211.8493804931641 L 178.5806121826172 211.8493804931641 L 178.5048370361328 211.8571014404297 C 178.4508666992188 211.8625793457031 173.0164489746094 212.4069366455078 166.3530578613281 212.4070434570313 C 158.7503814697266 212.4071807861328 152.4856414794922 211.697021484375 148.2360534667969 210.353271484375 C 137.8448638916016 207.0674896240234 135.4203948974609 199.3922729492188 135.3971099853516 199.3151245117188 L 135.0753936767578 198.2487640380859 L 133.9615325927734 198.2484130859375 L 40.92638778686523 198.2187652587891 L 39.91177749633789 198.2184295654297 L 39.53385925292969 199.1600494384766 C 39.50244522094727 199.2378234863281 36.26549911499023 207.1163482666016 30.11419486999512 210.3789672851563 C 26.46438980102539 212.3147735595703 21.66319465637207 212.7211303710938 18.27819442749023 212.7211303710938 Z" stroke="none"/>
      <path d="M 14 2.999984741210938 C 11.06179809570313 2.999984741210938 8.2994384765625 4.144195556640625 6.221817016601563 6.221817016601563 C 4.144210815429688 8.299423217773438 3 11.06178283691406 3 13.99998474121094 L 3 199.9999847412109 C 3 202.9382019042969 4.144210815429688 205.7005462646484 6.221817016601563 207.7781677246094 C 8.2994384765625 209.8557891845703 11.06179809570313 210.9999847412109 14 210.9999847412109 L 14.18534851074219 210.9995422363281 L 14.3726806640625 211.0232238769531 C 14.38864135742188 211.0251922607422 15.99505615234375 211.2210998535156 18.27828979492188 211.2210998535156 C 21.49299621582031 211.2210998535156 26.03399658203125 210.8451080322266 29.41131591796875 209.0538177490234 C 35.03903198242188 206.0689392089844 38.08967590332031 198.7283630371094 38.14361572265625 198.5967559814453 L 38.88844299316406 196.7181091308594 L 40.9268798828125 196.71875 L 133.9620361328125 196.7483978271484 L 136.2173461914063 196.6961364746094 L 136.8295440673828 198.8689575195313 C 136.8863677978516 199.03564453125 137.4971313476563 200.7532348632813 139.1681518554688 202.7750244140625 C 141.497802734375 205.5936584472656 144.7008209228516 207.6621704101563 148.6882934570313 208.9230194091797 C 152.7930603027344 210.2209930419922 158.9014739990234 210.9070434570313 166.3531799316406 210.9070434570313 C 172.9318542480469 210.9070434570313 178.2999420166016 210.3701629638672 178.3528594970703 210.3648071289063 L 178.5044097900391 210.349365234375 L 178.65673828125 210.349365234375 C 180.1690368652344 210.349365234375 181.5920562744141 210.0860137939453 182.8862609863281 209.5666656494141 C 184.1135864257813 209.0741424560547 185.1967926025391 208.3631896972656 186.1058502197266 207.4535522460938 C 187.0149688720703 206.5438690185547 187.7254943847656 205.4598693847656 188.2177581787109 204.2316589355469 C 188.73681640625 202.9366302490234 189 201.5128936767578 189 199.9999847412109 L 189 13.99998474121094 C 189 11.06178283691406 187.8557891845703 8.299423217773438 185.7781829833984 6.221817016601563 C 183.7005615234375 4.144195556640625 180.9382019042969 2.999984741210938 178 2.999984741210938 L 14 2.999984741210938 M 14 -1.52587890625e-05 L 178 -1.52587890625e-05 C 185.7319946289063 -1.52587890625e-05 192 6.267990112304688 192 13.99998474121094 L 192 199.9999847412109 C 192 207.7319946289063 186.3887329101563 213.349365234375 178.65673828125 213.349365234375 C 178.65673828125 213.349365234375 173.179443359375 213.9070434570313 166.3531951904297 213.9070434570313 C 160.2617645263672 213.9070434570313 153.0966033935547 213.4633636474609 147.7838287353516 211.7834320068359 C 136.5173492431641 208.2209014892578 133.9610595703125 199.7483978271484 133.9610595703125 199.7483978271484 L 40.92591857910156 199.71875 C 40.92591857910156 199.71875 37.54849243164063 208.1337890625 30.81700134277344 211.7041015625 C 26.88961791992188 213.7871398925781 21.81997680664063 214.2210998535156 18.27827453613281 214.2210998535156 C 15.74955749511719 214.2210998535156 14 213.9999847412109 14 213.9999847412109 C 6.26800537109375 213.9999847412109 0 207.7319946289063 0 199.9999847412109 L 0 13.99998474121094 C 0 6.267990112304688 6.26800537109375 -1.52587890625e-05 14 -1.52587890625e-05 Z" stroke="none" fill="#707070"/>
    </g>
    <line id="Line_78" data-name="Line 78" x2="137" transform="translate(1368.5 588.5)" fill="none" stroke="#707070" stroke-width="3"/>
    <line id="Line_79" data-name="Line 79" y2="212" transform="translate(1520.5 392.5)" fill="none" stroke="#707070" stroke-width="3"/>
    <g id="Mounts">
      <g id="Ellipse_51" data-name="Ellipse 51" transform="translate(1364 406)" fill="#fff" stroke="#707070" stroke-width="3">
        <circle cx="10.5" cy="10.5" r="10.5" stroke="none"/>
        <circle cx="10.5" cy="10.5" r="9" fill="none"/>
      </g>
      <g id="Ellipse_52" data-name="Ellipse 52" transform="translate(1488 406)" fill="#fff" stroke="#707070" stroke-width="3">
        <circle cx="10.5" cy="10.5" r="10.5" stroke="none"/>
        <circle cx="10.5" cy="10.5" r="9" fill="none"/>
      </g>
      <g id="Ellipse_53" data-name="Ellipse 53" transform="translate(1488 556)" fill="#fff" stroke="#707070" stroke-width="3">
        <circle cx="10.5" cy="10.5" r="10.5" stroke="none"/>
        <circle cx="10.5" cy="10.5" r="9" fill="none"/>
      </g>
      <g id="Ellipse_54" data-name="Ellipse 54" transform="translate(1364 556)" fill="#fff" stroke="#707070" stroke-width="3">
        <circle cx="10.5" cy="10.5" r="10.5" stroke="none"/>
        <circle cx="10.5" cy="10.5" r="9" fill="none"/>
      </g>
    </g>
    <g id="Rectangle_54" data-name="Rectangle 54" transform="translate(1351 526)" fill="#fff" stroke="#707070" stroke-width="3">
      <rect width="156" height="20" rx="4" stroke="none"/>
      <rect x="1.5" y="1.5" width="153" height="17" rx="2.5" fill="none"/>
    </g>
    <g id="Card" transform="translate(0 2)">
      <g id="Rectangle_55" data-name="Rectangle 55" transform="translate(1364 437)" fill="#fff" stroke="#707070" stroke-width="3">
        <rect width="132" height="89" rx="12" stroke="none"/>
        <rect x="1.5" y="1.5" width="129" height="86" rx="10.5" fill="none"/>
      </g>
      <g id="Ellipse_55" data-name="Ellipse 55" transform="translate(1379 453)" fill="#707070" stroke="#707070" stroke-width="1">
        <circle cx="3" cy="3" r="3" stroke="none"/>
        <circle cx="3" cy="3" r="2.5" fill="none"/>
      </g>
      <g id="Ellipse_56" data-name="Ellipse 56" transform="translate(1439 453)" fill="#707070" stroke="#707070" stroke-width="1">
        <circle cx="3" cy="3" r="3" stroke="none"/>
        <circle cx="3" cy="3" r="2.5" fill="none"/>
      </g>
      <g id="Ellipse_57" data-name="Ellipse 57" transform="translate(1439 513)" fill="#707070" stroke="#707070" stroke-width="1">
        <circle cx="3" cy="3" r="3" stroke="none"/>
        <circle cx="3" cy="3" r="2.5" fill="none"/>
      </g>
      <g id="Ellipse_58" data-name="Ellipse 58" transform="translate(1379 513)" fill="#707070" stroke="#707070" stroke-width="1">
        <circle cx="3" cy="3" r="3" stroke="none"/>
        <circle cx="3" cy="3" r="2.5" fill="none"/>
      </g>
      <g id="Rectangle_56" data-name="Rectangle 56" transform="translate(1460 453)" fill="#fff" stroke="#707070" stroke-width="3">
        <rect width="22" height="31" rx="6" stroke="none"/>
        <rect x="1.5" y="1.5" width="19" height="28" rx="4.5" fill="none"/>
      </g>
      <g id="Ellipse_59" data-name="Ellipse 59" transform="translate(1378 452)" fill="#fff" stroke="#707070" stroke-width="4">
        <circle cx="32" cy="32" r="32" stroke="none"/>
        <circle cx="32" cy="32" r="30" fill="none"/>
      </g>
      <path id="Path_92" data-name="Path 92" d="M1446.549,491.381h14.083s8.5,1.389,12.646,5.652,3.928,11.4,3.928,11.4v16.573" fill="none" stroke="#707070" stroke-width="4"/>
      <g id="Ellipse_61" data-name="Ellipse 61" transform="translate(1445 489.35)" fill="#707070" stroke="#707070" stroke-width="2">
        <circle cx="2" cy="2" r="2" stroke="none"/>
        <circle cx="2" cy="2" r="1" fill="none"/>
      </g>
      <g id="Ellipse_62" data-name="Ellipse 62" transform="translate(1445 503.35)" fill="#707070" stroke="#707070" stroke-width="2">
        <circle cx="2" cy="2" r="2" stroke="none"/>
        <circle cx="2" cy="2" r="1" fill="none"/>
      </g>
      <path id="Path_93" data-name="Path 93" d="M1505,1741.35h11.522a11.075,11.075,0,0,1,3.771,2.711,7.907,7.907,0,0,1,1.433,3.922V1760.8" transform="translate(-58 -1236)" fill="none" stroke="#707070" stroke-width="4"/>
      <g id="Group_24" data-name="Group 24">
        <g id="Ellipse_60" data-name="Ellipse 60" transform="translate(1402 477)" fill="none" stroke="#707070" stroke-width="3">
          <circle cx="8" cy="8" r="8" stroke="none"/>
          <circle cx="8" cy="8" r="6.5" fill="none"/>
        </g>
        <path id="Path_84" data-name="Path 84" d="M1468.3,1714.264a26.98,26.98,0,0,0,3-11.734c-.057-6.179-5.364-12.512-5.364-12.512" transform="translate(-58 -1236)" fill="none" stroke="#707070" stroke-width="4"/>
        <path id="Path_85" data-name="Path 85" d="M1468.3,1714.264a26.98,26.98,0,0,0,3-11.734c-.057-6.179-5.364-12.512-5.364-12.512" transform="translate(1588.897 -1769.928) rotate(45)" fill="none" stroke="#707070" stroke-width="4"/>
        <path id="Path_86" data-name="Path 86" d="M1468.3,1714.264a26.98,26.98,0,0,0,3-11.734c-.057-6.179-5.364-12.512-5.364-12.512" transform="translate(3130.916 -983.331) rotate(90)" fill="none" stroke="#707070" stroke-width="4"/>
        <path id="Path_87" data-name="Path 87" d="M1468.3,1714.264a26.98,26.98,0,0,0,3-11.734c-.057-6.179-5.364-12.512-5.364-12.512" transform="translate(3664.844 663.566) rotate(135)" fill="none" stroke="#707070" stroke-width="4"/>
        <path id="Path_88" data-name="Path 88" d="M1468.3,1714.264a26.98,26.98,0,0,0,3-11.734c-.057-6.179-5.364-12.512-5.364-12.512" transform="translate(2876.564 2204.585) rotate(180)" fill="none" stroke="#707070" stroke-width="4"/>
        <path id="Path_89" data-name="Path 89" d="M1468.3,1714.264a26.98,26.98,0,0,0,3-11.734c-.057-6.179-5.364-12.512-5.364-12.512" transform="matrix(-0.819, -0.574, 0.574, -0.819, 1622.825, 2733.442)" fill="none" stroke="#707070" stroke-width="4"/>
        <path id="Path_90" data-name="Path 90" d="M1468.3,1714.264a26.98,26.98,0,0,0,3-11.734c-.057-6.179-5.364-12.512-5.364-12.512" transform="matrix(-0.174, -0.985, 0.985, -0.174, -30.151, 2225.647)" fill="none" stroke="#707070" stroke-width="4"/>
        <path id="Path_91" data-name="Path 91" d="M1468.3,1714.264a26.98,26.98,0,0,0,3-11.734c-.057-6.179-5.364-12.512-5.364-12.512" transform="translate(-843.962 305.64) rotate(-45)" fill="none" stroke="#707070" stroke-width="4"/>
      </g>
    </g>
  </g>
</svg>
