<svg id="Layer_1" enable-background="new 0 0 512 512" height="512" viewBox="0 0 512 512" width="512" xmlns="http://www.w3.org/2000/svg"><g><path d="m507.582 413.78-71.942-74.676c24.084-35.899 36.789-77.652 36.789-121.167 0-61.467-26.17-120.387-71.799-161.652-7.189-6.506-17.253 4.621-10.061 11.125 22.132 20.015 39.333 44.496 50.749 71.442h-96.347c-9.036-53.675-27.103-96.576-50.256-119.807 21.155 4.271 41.56 11.875 60.329 22.605 8.419 4.813 15.864-8.211 7.444-13.022-32.759-18.729-70.138-28.628-108.094-28.628-58.239 0-112.992 22.669-154.174 63.831-41.183 41.163-63.863 95.892-63.863 154.106 0 67.848 31.03 130.697 83.933 171.87h-94.376c-14.243 0-25.831 11.587-25.831 25.831v70.532c0 14.243 11.588 25.83 25.831 25.83h30.161c9.697 0 9.697-15 0-15h-30.161c-5.973 0-10.831-4.858-10.831-10.831v-70.532c0-5.972 4.858-10.831 10.831-10.831h279.216c5.973 0 10.831 4.858 10.831 10.831v70.532c0 5.972-4.858 10.831-10.831 10.831h-209.092c-9.697 0-9.697 15 0 15h209.092c14.243 0 25.831-11.587 25.831-25.831v-64.116c20.328-7.615 39.24-18.156 56.429-31.418l.165 71.681c.034 15.005 19.701 21.556 28.739 9.598l28.936-38.284c.219-.291.572-.437.94-.38l47.431 7.408c14.586 2.272 24.395-16.07 13.981-26.878zm-60.591-259.928c6.833 20.483 10.439 42.107 10.439 64.085 0 22.054-3.51 43.619-10.316 64.085h-99.953c2.725-20.453 4.168-42.007 4.168-64.085 0-22.395-1.435-43.895-4.105-64.085zm-149.832 235.955h-85.532c-14.817-22.899-26.014-55.309-32.563-92.785h150.659c-6.55 37.477-17.747 69.887-32.564 92.785zm-120.441-107.785c-2.79-20.343-4.261-41.92-4.261-64.085 0-22.116 1.462-43.68 4.27-64.085h155.332c2.808 20.405 4.27 41.969 4.27 64.085 0 22.165-1.471 43.742-4.261 64.085zm-125.361-64.085c0-22.385 3.654-43.931 10.382-64.085h99.824c-2.67 20.19-4.105 41.69-4.105 64.085 0 22.078 1.443 43.632 4.168 64.085h-99.959c-6.742-20.345-10.31-41.926-10.31-64.085zm259.375-145.868c8.253 19.418 14.652 42.076 18.988 66.783h-150.653c4.336-24.706 10.735-47.365 18.988-66.783 15.414-36.268 35.949-57.069 56.339-57.069s40.924 20.801 56.338 57.069zm-96.638-53.048c-23.165 23.226-41.24 66.138-50.28 119.831h-96.403c25.824-60.765 80.465-106.45 146.683-119.831zm-68.872 370.051c-35.396-22.606-62.184-54.809-77.909-92.05h96.565c6.146 36.364 16.514 68.497 30.235 92.785h-47.936c-.296-.264-.61-.514-.955-.735zm184.104 17.528c-2.66-7.098-8.357-12.722-15.502-15.283 14.146-24.457 24.812-57.178 31.085-94.294h96.543c-4.553 10.736-10.055 21.105-16.475 31.013l-10.23-10.619c-9.644-10.014-27.53-2.963-27.499 11.123l.099 42.772c-17.361 15.047-36.845 26.89-58.021 35.288zm167.618 18.718c-.327.628-.766.559-1.027.519l-47.43-7.408c-5.835-.912-11.662 1.447-15.222 6.155l-28.937 38.286c-.873.651-1.464.455-1.772-.588l-.309-133.777c.257-.99.823-1.217 1.696-.682l92.837 96.365c.183.189.488.506.164 1.13z"/><path d="m100.345 477.467 15.734-48.499c2.993-9.224-11.278-13.854-14.268-4.629l-9.428 29.06-9.727-23.677c-2.496-6.078-11.379-6.078-13.875 0l-9.725 23.678-9.429-29.061c-2.99-9.224-17.26-4.595-14.268 4.629l15.735 48.499c2.093 6.451 11.484 6.833 14.071.535l10.554-25.691 10.554 25.691c2.599 6.326 11.963 5.968 14.072-.535z"/><path d="m147.746 482.647c3.134.119 6.028-1.735 7.223-4.645l10.553-25.691 10.554 25.691c2.567 6.249 11.963 5.962 14.071-.535l15.735-48.499c2.993-9.224-11.278-13.854-14.268-4.629l-9.429 29.061-9.727-23.677c-2.496-6.078-11.379-6.078-13.875 0l-9.726 23.677-9.429-29.06c-2.99-9.224-17.26-4.595-14.268 4.629l15.735 48.499c.973 2.991 3.708 5.06 6.851 5.179z"/><path d="m237.548 482.647c3.124.119 6.027-1.734 7.223-4.645l10.554-25.691 10.554 25.691c2.567 6.249 11.963 5.962 14.071-.535l15.735-48.499c2.993-9.224-11.278-13.854-14.268-4.629l-9.429 29.061-9.727-23.677c-2.496-6.078-11.379-6.078-13.875 0l-9.726 23.677-9.429-29.061c-2.992-9.223-17.26-4.595-14.268 4.629l15.735 48.499c.972 2.992 3.707 5.061 6.85 5.18z"/></g></svg>